<?xml version="1.0" encoding="UTF-8"?>
<!-- jay@gupta terminal readout · v4 · shimmer + petals · generated by assets/readme-art.gen.py -->
<svg xmlns="http://www.w3.org/2000/svg" xmlns:xlink="http://www.w3.org/1999/xlink" width="1200" height="700" viewBox="0 0 1200 700" role="img" xml:space="preserve" font-family="ui-monospace, 'SF Mono', SFMono-Regular, Menlo, Consolas, 'Liberation Mono', monospace">
  <title>jay@gupta terminal: ai engineer at encraft, building sketchpen</title>
  <defs>
    <radialGradient id="spill" cx="0.5" cy="0.45" r="0.55">
      <stop offset="0" stop-color="#cba6f7" stop-opacity="0.10"/>
      <stop offset="1" stop-color="#cba6f7" stop-opacity="0"/>
    </radialGradient>
    <linearGradient id="sheen" x1="0" y1="0" x2="1" y2="0">
      <stop offset="0" stop-color="#ffffff" stop-opacity="0"/>
      <stop offset="0.5" stop-color="#ffffff" stop-opacity="0.10"/>
      <stop offset="1" stop-color="#ffffff" stop-opacity="0"/>
    </linearGradient>
    <linearGradient id="silsheen" x1="0" y1="0" x2="1" y2="0">
      <stop offset="0" stop-color="#ffffff" stop-opacity="0"/>
      <stop offset="0.5" stop-color="#ffffff" stop-opacity="0.30"/>
      <stop offset="1" stop-color="#ffffff" stop-opacity="0"/>
    </linearGradient>
    <linearGradient id="edgesheen" x1="0" y1="0" x2="1" y2="0">
      <stop offset="0" stop-color="#ffffff" stop-opacity="0"/>
      <stop offset="0.5" stop-color="#ffffff" stop-opacity="0.30"/>
      <stop offset="1" stop-color="#ffffff" stop-opacity="0"/>
    </linearGradient>
    <filter id="grain" x="0" y="0" width="100%" height="100%">
      <feTurbulence type="fractalNoise" baseFrequency="0.85" numOctaves="2" result="n"/>
      <feColorMatrix in="n" type="matrix" values="0 0 0 0 0  0 0 0 0 0  0 0 0 0 0  0.65 0.65 0.65 0 0"/>
    </filter>
    <clipPath id="winclip"><rect x="0" y="47" width="1200" height="618"/></clipPath>
    <clipPath id="silclip">
      <rect x="116.5" y="25.5" width="14" height="14"/>
      <rect x="129.5" y="25.5" width="14" height="14"/>
      <rect x="142.5" y="25.5" width="14" height="14"/>
      <rect x="155.5" y="25.5" width="14" height="14"/>
      <rect x="168.5" y="25.5" width="14" height="14"/>
      <rect x="181.5" y="25.5" width="14" height="14"/>
      <rect x="103.5" y="38.5" width="14" height="14"/>
      <rect x="116.5" y="38.5" width="14" height="14"/>
      <rect x="129.5" y="38.5" width="14" height="14"/>
      <rect x="142.5" y="38.5" width="14" height="14"/>
      <rect x="155.5" y="38.5" width="14" height="14"/>
      <rect x="168.5" y="38.5" width="14" height="14"/>
      <rect x="181.5" y="38.5" width="14" height="14"/>
      <rect x="194.5" y="38.5" width="14" height="14"/>
      <rect x="90.5" y="51.5" width="14" height="14"/>
      <rect x="103.5" y="51.5" width="14" height="14"/>
      <rect x="116.5" y="51.5" width="14" height="14"/>
      <rect x="129.5" y="51.5" width="14" height="14"/>
      <rect x="142.5" y="51.5" width="14" height="14"/>
      <rect x="155.5" y="51.5" width="14" height="14"/>
      <rect x="168.5" y="51.5" width="14" height="14"/>
      <rect x="181.5" y="51.5" width="14" height="14"/>
      <rect x="194.5" y="51.5" width="14" height="14"/>
      <rect x="207.5" y="51.5" width="14" height="14"/>
      <rect x="77.5" y="64.5" width="14" height="14"/>
      <rect x="90.5" y="64.5" width="14" height="14"/>
      <rect x="103.5" y="64.5" width="14" height="14"/>
      <rect x="116.5" y="64.5" width="14" height="14"/>
      <rect x="129.5" y="64.5" width="14" height="14"/>
      <rect x="142.5" y="64.5" width="14" height="14"/>
      <rect x="155.5" y="64.5" width="14" height="14"/>
      <rect x="168.5" y="64.5" width="14" height="14"/>
      <rect x="181.5" y="64.5" width="14" height="14"/>
      <rect x="194.5" y="64.5" width="14" height="14"/>
      <rect x="207.5" y="64.5" width="14" height="14"/>
      <rect x="77.5" y="77.5" width="14" height="14"/>
      <rect x="90.5" y="77.5" width="14" height="14"/>
      <rect x="103.5" y="77.5" width="14" height="14"/>
      <rect x="116.5" y="77.5" width="14" height="14"/>
      <rect x="129.5" y="77.5" width="14" height="14"/>
      <rect x="142.5" y="77.5" width="14" height="14"/>
      <rect x="155.5" y="77.5" width="14" height="14"/>
      <rect x="168.5" y="77.5" width="14" height="14"/>
      <rect x="181.5" y="77.5" width="14" height="14"/>
      <rect x="194.5" y="77.5" width="14" height="14"/>
      <rect x="207.5" y="77.5" width="14" height="14"/>
      <rect x="220.5" y="77.5" width="14" height="14"/>
      <rect x="77.5" y="90.5" width="14" height="14"/>
      <rect x="90.5" y="90.5" width="14" height="14"/>
      <rect x="103.5" y="90.5" width="14" height="14"/>
      <rect x="116.5" y="90.5" width="14" height="14"/>
      <rect x="129.5" y="90.5" width="14" height="14"/>
      <rect x="142.5" y="90.5" width="14" height="14"/>
      <rect x="155.5" y="90.5" width="14" height="14"/>
      <rect x="168.5" y="90.5" width="14" height="14"/>
      <rect x="181.5" y="90.5" width="14" height="14"/>
      <rect x="194.5" y="90.5" width="14" height="14"/>
      <rect x="207.5" y="90.5" width="14" height="14"/>
      <rect x="220.5" y="90.5" width="14" height="14"/>
      <rect x="77.5" y="103.5" width="14" height="14"/>
      <rect x="90.5" y="103.5" width="14" height="14"/>
      <rect x="103.5" y="103.5" width="14" height="14"/>
      <rect x="116.5" y="103.5" width="14" height="14"/>
      <rect x="129.5" y="103.5" width="14" height="14"/>
      <rect x="142.5" y="103.5" width="14" height="14"/>
      <rect x="155.5" y="103.5" width="14" height="14"/>
      <rect x="168.5" y="103.5" width="14" height="14"/>
      <rect x="181.5" y="103.5" width="14" height="14"/>
      <rect x="194.5" y="103.5" width="14" height="14"/>
      <rect x="207.5" y="103.5" width="14" height="14"/>
      <rect x="220.5" y="103.5" width="14" height="14"/>
      <rect x="64.5" y="116.5" width="14" height="14"/>
      <rect x="77.5" y="116.5" width="14" height="14"/>
      <rect x="90.5" y="116.5" width="14" height="14"/>
      <rect x="103.5" y="116.5" width="14" height="14"/>
      <rect x="116.5" y="116.5" width="14" height="14"/>
      <rect x="129.5" y="116.5" width="14" height="14"/>
      <rect x="142.5" y="116.5" width="14" height="14"/>
      <rect x="155.5" y="116.5" width="14" height="14"/>
      <rect x="168.5" y="116.5" width="14" height="14"/>
      <rect x="181.5" y="116.5" width="14" height="14"/>
      <rect x="194.5" y="116.5" width="14" height="14"/>
      <rect x="207.5" y="116.5" width="14" height="14"/>
      <rect x="77.5" y="129.5" width="14" height="14"/>
      <rect x="90.5" y="129.5" width="14" height="14"/>
      <rect x="103.5" y="129.5" width="14" height="14"/>
      <rect x="116.5" y="129.5" width="14" height="14"/>
      <rect x="129.5" y="129.5" width="14" height="14"/>
      <rect x="142.5" y="129.5" width="14" height="14"/>
      <rect x="155.5" y="129.5" width="14" height="14"/>
      <rect x="168.5" y="129.5" width="14" height="14"/>
      <rect x="181.5" y="129.5" width="14" height="14"/>
      <rect x="194.5" y="129.5" width="14" height="14"/>
      <rect x="207.5" y="129.5" width="14" height="14"/>
      <rect x="77.5" y="142.5" width="14" height="14"/>
      <rect x="90.5" y="142.5" width="14" height="14"/>
      <rect x="103.5" y="142.5" width="14" height="14"/>
      <rect x="116.5" y="142.5" width="14" height="14"/>
      <rect x="129.5" y="142.5" width="14" height="14"/>
      <rect x="142.5" y="142.5" width="14" height="14"/>
      <rect x="155.5" y="142.5" width="14" height="14"/>
      <rect x="168.5" y="142.5" width="14" height="14"/>
      <rect x="181.5" y="142.5" width="14" height="14"/>
      <rect x="194.5" y="142.5" width="14" height="14"/>
      <rect x="207.5" y="142.5" width="14" height="14"/>
      <rect x="220.5" y="142.5" width="14" height="14"/>
      <rect x="90.5" y="155.5" width="14" height="14"/>
      <rect x="103.5" y="155.5" width="14" height="14"/>
      <rect x="116.5" y="155.5" width="14" height="14"/>
      <rect x="129.5" y="155.5" width="14" height="14"/>
      <rect x="142.5" y="155.5" width="14" height="14"/>
      <rect x="155.5" y="155.5" width="14" height="14"/>
      <rect x="168.5" y="155.5" width="14" height="14"/>
      <rect x="181.5" y="155.5" width="14" height="14"/>
      <rect x="194.5" y="155.5" width="14" height="14"/>
      <rect x="207.5" y="155.5" width="14" height="14"/>
      <rect x="103.5" y="168.5" width="14" height="14"/>
      <rect x="116.5" y="168.5" width="14" height="14"/>
      <rect x="129.5" y="168.5" width="14" height="14"/>
      <rect x="142.5" y="168.5" width="14" height="14"/>
      <rect x="155.5" y="168.5" width="14" height="14"/>
      <rect x="168.5" y="168.5" width="14" height="14"/>
      <rect x="181.5" y="168.5" width="14" height="14"/>
      <rect x="194.5" y="168.5" width="14" height="14"/>
      <rect x="116.5" y="181.5" width="14" height="14"/>
      <rect x="129.5" y="181.5" width="14" height="14"/>
      <rect x="142.5" y="181.5" width="14" height="14"/>
      <rect x="155.5" y="181.5" width="14" height="14"/>
      <rect x="168.5" y="181.5" width="14" height="14"/>
      <rect x="181.5" y="181.5" width="14" height="14"/>
      <rect x="194.5" y="181.5" width="14" height="14"/>
      <rect x="103.5" y="194.5" width="14" height="14"/>
      <rect x="116.5" y="194.5" width="14" height="14"/>
      <rect x="129.5" y="194.5" width="14" height="14"/>
      <rect x="142.5" y="194.5" width="14" height="14"/>
      <rect x="155.5" y="194.5" width="14" height="14"/>
      <rect x="168.5" y="194.5" width="14" height="14"/>
      <rect x="181.5" y="194.5" width="14" height="14"/>
      <rect x="194.5" y="194.5" width="14" height="14"/>
      <rect x="207.5" y="194.5" width="14" height="14"/>
      <rect x="220.5" y="194.5" width="14" height="14"/>
      <rect x="77.5" y="207.5" width="14" height="14"/>
      <rect x="90.5" y="207.5" width="14" height="14"/>
      <rect x="103.5" y="207.5" width="14" height="14"/>
      <rect x="116.5" y="207.5" width="14" height="14"/>
      <rect x="129.5" y="207.5" width="14" height="14"/>
      <rect x="142.5" y="207.5" width="14" height="14"/>
      <rect x="155.5" y="207.5" width="14" height="14"/>
      <rect x="168.5" y="207.5" width="14" height="14"/>
      <rect x="181.5" y="207.5" width="14" height="14"/>
      <rect x="194.5" y="207.5" width="14" height="14"/>
      <rect x="207.5" y="207.5" width="14" height="14"/>
      <rect x="220.5" y="207.5" width="14" height="14"/>
      <rect x="233.5" y="207.5" width="14" height="14"/>
      <rect x="246.5" y="207.5" width="14" height="14"/>
      <rect x="64.5" y="220.5" width="14" height="14"/>
      <rect x="77.5" y="220.5" width="14" height="14"/>
      <rect x="90.5" y="220.5" width="14" height="14"/>
      <rect x="103.5" y="220.5" width="14" height="14"/>
      <rect x="116.5" y="220.5" width="14" height="14"/>
      <rect x="129.5" y="220.5" width="14" height="14"/>
      <rect x="142.5" y="220.5" width="14" height="14"/>
      <rect x="155.5" y="220.5" width="14" height="14"/>
      <rect x="168.5" y="220.5" width="14" height="14"/>
      <rect x="181.5" y="220.5" width="14" height="14"/>
      <rect x="194.5" y="220.5" width="14" height="14"/>
      <rect x="207.5" y="220.5" width="14" height="14"/>
      <rect x="220.5" y="220.5" width="14" height="14"/>
      <rect x="233.5" y="220.5" width="14" height="14"/>
      <rect x="246.5" y="220.5" width="14" height="14"/>
      <rect x="259.5" y="220.5" width="14" height="14"/>
      <rect x="272.5" y="220.5" width="14" height="14"/>
      <rect x="38.5" y="233.5" width="14" height="14"/>
      <rect x="51.5" y="233.5" width="14" height="14"/>
      <rect x="64.5" y="233.5" width="14" height="14"/>
      <rect x="77.5" y="233.5" width="14" height="14"/>
      <rect x="90.5" y="233.5" width="14" height="14"/>
      <rect x="103.5" y="233.5" width="14" height="14"/>
      <rect x="116.5" y="233.5" width="14" height="14"/>
      <rect x="129.5" y="233.5" width="14" height="14"/>
      <rect x="142.5" y="233.5" width="14" height="14"/>
      <rect x="155.5" y="233.5" width="14" height="14"/>
      <rect x="168.5" y="233.5" width="14" height="14"/>
      <rect x="181.5" y="233.5" width="14" height="14"/>
      <rect x="194.5" y="233.5" width="14" height="14"/>
      <rect x="207.5" y="233.5" width="14" height="14"/>
      <rect x="220.5" y="233.5" width="14" height="14"/>
      <rect x="233.5" y="233.5" width="14" height="14"/>
      <rect x="246.5" y="233.5" width="14" height="14"/>
      <rect x="259.5" y="233.5" width="14" height="14"/>
      <rect x="272.5" y="233.5" width="14" height="14"/>
      <rect x="285.5" y="233.5" width="14" height="14"/>
      <rect x="38.5" y="246.5" width="14" height="14"/>
      <rect x="51.5" y="246.5" width="14" height="14"/>
      <rect x="64.5" y="246.5" width="14" height="14"/>
      <rect x="77.5" y="246.5" width="14" height="14"/>
      <rect x="90.5" y="246.5" width="14" height="14"/>
      <rect x="103.5" y="246.5" width="14" height="14"/>
      <rect x="116.5" y="246.5" width="14" height="14"/>
      <rect x="129.5" y="246.5" width="14" height="14"/>
      <rect x="142.5" y="246.5" width="14" height="14"/>
      <rect x="155.5" y="246.5" width="14" height="14"/>
      <rect x="168.5" y="246.5" width="14" height="14"/>
      <rect x="181.5" y="246.5" width="14" height="14"/>
      <rect x="194.5" y="246.5" width="14" height="14"/>
      <rect x="207.5" y="246.5" width="14" height="14"/>
      <rect x="220.5" y="246.5" width="14" height="14"/>
      <rect x="233.5" y="246.5" width="14" height="14"/>
      <rect x="246.5" y="246.5" width="14" height="14"/>
      <rect x="259.5" y="246.5" width="14" height="14"/>
      <rect x="272.5" y="246.5" width="14" height="14"/>
      <rect x="285.5" y="246.5" width="14" height="14"/>
      <rect x="25.5" y="259.5" width="14" height="14"/>
      <rect x="38.5" y="259.5" width="14" height="14"/>
      <rect x="51.5" y="259.5" width="14" height="14"/>
      <rect x="64.5" y="259.5" width="14" height="14"/>
      <rect x="77.5" y="259.5" width="14" height="14"/>
      <rect x="90.5" y="259.5" width="14" height="14"/>
      <rect x="103.5" y="259.5" width="14" height="14"/>
      <rect x="116.5" y="259.5" width="14" height="14"/>
      <rect x="129.5" y="259.5" width="14" height="14"/>
      <rect x="142.5" y="259.5" width="14" height="14"/>
      <rect x="155.5" y="259.5" width="14" height="14"/>
      <rect x="168.5" y="259.5" width="14" height="14"/>
      <rect x="181.5" y="259.5" width="14" height="14"/>
      <rect x="194.5" y="259.5" width="14" height="14"/>
      <rect x="207.5" y="259.5" width="14" height="14"/>
      <rect x="220.5" y="259.5" width="14" height="14"/>
      <rect x="233.5" y="259.5" width="14" height="14"/>
      <rect x="246.5" y="259.5" width="14" height="14"/>
      <rect x="259.5" y="259.5" width="14" height="14"/>
      <rect x="272.5" y="259.5" width="14" height="14"/>
      <rect x="285.5" y="259.5" width="14" height="14"/>
      <rect x="25.5" y="272.5" width="14" height="14"/>
      <rect x="38.5" y="272.5" width="14" height="14"/>
      <rect x="51.5" y="272.5" width="14" height="14"/>
      <rect x="64.5" y="272.5" width="14" height="14"/>
      <rect x="77.5" y="272.5" width="14" height="14"/>
      <rect x="90.5" y="272.5" width="14" height="14"/>
      <rect x="103.5" y="272.5" width="14" height="14"/>
      <rect x="116.5" y="272.5" width="14" height="14"/>
      <rect x="129.5" y="272.5" width="14" height="14"/>
      <rect x="142.5" y="272.5" width="14" height="14"/>
      <rect x="155.5" y="272.5" width="14" height="14"/>
      <rect x="168.5" y="272.5" width="14" height="14"/>
      <rect x="181.5" y="272.5" width="14" height="14"/>
      <rect x="194.5" y="272.5" width="14" height="14"/>
      <rect x="207.5" y="272.5" width="14" height="14"/>
      <rect x="220.5" y="272.5" width="14" height="14"/>
      <rect x="233.5" y="272.5" width="14" height="14"/>
      <rect x="246.5" y="272.5" width="14" height="14"/>
      <rect x="259.5" y="272.5" width="14" height="14"/>
      <rect x="272.5" y="272.5" width="14" height="14"/>
      <rect x="285.5" y="272.5" width="14" height="14"/>
      <rect x="298.5" y="272.5" width="14" height="14"/>
      <rect x="25.5" y="285.5" width="14" height="14"/>
      <rect x="38.5" y="285.5" width="14" height="14"/>
      <rect x="51.5" y="285.5" width="14" height="14"/>
      <rect x="64.5" y="285.5" width="14" height="14"/>
      <rect x="77.5" y="285.5" width="14" height="14"/>
      <rect x="90.5" y="285.5" width="14" height="14"/>
      <rect x="103.5" y="285.5" width="14" height="14"/>
      <rect x="116.5" y="285.5" width="14" height="14"/>
      <rect x="129.5" y="285.5" width="14" height="14"/>
      <rect x="142.5" y="285.5" width="14" height="14"/>
      <rect x="155.5" y="285.5" width="14" height="14"/>
      <rect x="168.5" y="285.5" width="14" height="14"/>
      <rect x="181.5" y="285.5" width="14" height="14"/>
      <rect x="194.5" y="285.5" width="14" height="14"/>
      <rect x="207.5" y="285.5" width="14" height="14"/>
      <rect x="220.5" y="285.5" width="14" height="14"/>
      <rect x="233.5" y="285.5" width="14" height="14"/>
      <rect x="246.5" y="285.5" width="14" height="14"/>
      <rect x="259.5" y="285.5" width="14" height="14"/>
      <rect x="272.5" y="285.5" width="14" height="14"/>
      <rect x="285.5" y="285.5" width="14" height="14"/>
      <rect x="298.5" y="285.5" width="14" height="14"/>
      <rect x="25.5" y="298.5" width="14" height="14"/>
      <rect x="38.5" y="298.5" width="14" height="14"/>
      <rect x="51.5" y="298.5" width="14" height="14"/>
      <rect x="64.5" y="298.5" width="14" height="14"/>
      <rect x="77.5" y="298.5" width="14" height="14"/>
      <rect x="90.5" y="298.5" width="14" height="14"/>
      <rect x="103.5" y="298.5" width="14" height="14"/>
      <rect x="116.5" y="298.5" width="14" height="14"/>
      <rect x="129.5" y="298.5" width="14" height="14"/>
      <rect x="142.5" y="298.5" width="14" height="14"/>
      <rect x="155.5" y="298.5" width="14" height="14"/>
      <rect x="168.5" y="298.5" width="14" height="14"/>
      <rect x="181.5" y="298.5" width="14" height="14"/>
      <rect x="194.5" y="298.5" width="14" height="14"/>
      <rect x="207.5" y="298.5" width="14" height="14"/>
      <rect x="220.5" y="298.5" width="14" height="14"/>
      <rect x="233.5" y="298.5" width="14" height="14"/>
      <rect x="246.5" y="298.5" width="14" height="14"/>
      <rect x="259.5" y="298.5" width="14" height="14"/>
      <rect x="272.5" y="298.5" width="14" height="14"/>
      <rect x="285.5" y="298.5" width="14" height="14"/>
      <rect x="298.5" y="298.5" width="14" height="14"/>
      <rect x="25.5" y="311.5" width="14" height="14"/>
      <rect x="38.5" y="311.5" width="14" height="14"/>
      <rect x="51.5" y="311.5" width="14" height="14"/>
      <rect x="64.5" y="311.5" width="14" height="14"/>
      <rect x="77.5" y="311.5" width="14" height="14"/>
      <rect x="90.5" y="311.5" width="14" height="14"/>
      <rect x="103.5" y="311.5" width="14" height="14"/>
      <rect x="116.5" y="311.5" width="14" height="14"/>
      <rect x="129.5" y="311.5" width="14" height="14"/>
      <rect x="142.5" y="311.5" width="14" height="14"/>
      <rect x="155.5" y="311.5" width="14" height="14"/>
      <rect x="168.5" y="311.5" width="14" height="14"/>
      <rect x="181.5" y="311.5" width="14" height="14"/>
      <rect x="194.5" y="311.5" width="14" height="14"/>
      <rect x="207.5" y="311.5" width="14" height="14"/>
      <rect x="220.5" y="311.5" width="14" height="14"/>
      <rect x="233.5" y="311.5" width="14" height="14"/>
      <rect x="246.5" y="311.5" width="14" height="14"/>
      <rect x="259.5" y="311.5" width="14" height="14"/>
      <rect x="272.5" y="311.5" width="14" height="14"/>
      <rect x="285.5" y="311.5" width="14" height="14"/>
      <rect x="298.5" y="311.5" width="14" height="14"/>
    </clipPath>
    <ellipse id="pA" rx="7" ry="3.8" transform="rotate(-24)"/>
    <ellipse id="pB" rx="5.5" ry="3" transform="rotate(18)"/>
    <ellipse id="pC" rx="8" ry="4.4" transform="rotate(-8)"/>
    <style>
    text, tspan { white-space: pre; }
    .text { fill: #cdd6f4; }
    .sub { fill: #a6adc8; }
    .ov0 { fill: #6c7086; }
    .ov1 { fill: #7f849c; }
    .faint { fill: #45475a; }
    .mauve { fill: #cba6f7; }
    </style>
  </defs>

  <rect fill="#1e1e2e" width="1200" height="700"/>
  <circle cx="520" cy="380" r="330" fill="url(#spill)"/>

  <rect fill="#181825" width="1200" height="46"/>
  <line stroke="#313244" stroke-width="1" x1="0" y1="46.5" x2="1200" y2="46.5"/>
  <rect x="-200" y="45.4" width="150" height="2.2" fill="url(#edgesheen)">
    <animate attributeName="x" values="-200;1250;1250" keyTimes="0;0.08;1" dur="8s" begin="3.5s" repeatCount="indefinite"/>
  </rect>
  <circle cx="30" cy="23" r="6.5" fill="#f38ba8"/>
  <circle cx="52" cy="23" r="6.5" fill="#f9e2af"/>
  <circle cx="74" cy="23" r="6.5" fill="#a6e3a1"/>
  <text class="ov0" x="600" y="29" font-size="16" text-anchor="middle">jay@gupta: ~</text>

  <text font-size="18.5"><tspan class="mauve" x="524" y="106">jay@gupta </tspan><tspan class="faint" x="635" y="106">───────────────────────────────────────────────</tspan></text>
  <text font-size="18.5"><tspan class="faint" x="524" y="140">. </tspan><tspan class="ov1">os</tspan></text>
    <text class="text" x="674" y="140" font-size="18.5"><tspan class="text">macos tahoe</tspan></text>
    <text font-size="18.5"><tspan class="faint" x="524" y="173">. </tspan><tspan class="ov1">host</tspan></text>
    <text class="text" x="674" y="173" font-size="18.5"><tspan class="text">encraft </tspan><tspan class="ov1">·</tspan><tspan class="text"> ai engineer</tspan></text>
    <text font-size="18.5"><tspan class="faint" x="524" y="206">. </tspan><tspan class="ov1">shell</tspan></text>
    <text class="text" x="674" y="206" font-size="18.5"><tspan class="text">ghostty </tspan><tspan class="ov1">·</tspan><tspan class="text"> catppuccin mocha</tspan></text>
    <text font-size="18.5"><tspan class="faint" x="524" y="239">. </tspan><tspan class="ov1">languages</tspan></text>
    <text class="text" x="674" y="239" font-size="18.5"><tspan class="text">python </tspan><tspan class="ov1">·</tspan><tspan class="text"> typescript </tspan><tspan class="ov1">·</tspan><tspan class="text"> rust </tspan><tspan class="ov1">(basics)</tspan></text>
    <text font-size="18.5"><tspan class="faint" x="524" y="272">. </tspan><tspan class="ov1">ai</tspan></text>
    <text class="text" x="674" y="272" font-size="18.5"><tspan class="text">agents </tspan><tspan class="ov1">·</tspan><tspan class="text"> rag </tspan><tspan class="ov1">·</tspan><tspan class="text"> evals </tspan><tspan class="ov1">·</tspan><tspan class="text"> tts</tspan></text>
    <text font-size="18.5"><tspan class="faint" x="524" y="305">. </tspan><tspan class="ov1">building</tspan></text>
    <text class="text" x="674" y="305" font-size="18.5"><tspan class="text">sketchpen </tspan><tspan class="ov1">(early access)</tspan></text>
    <text font-size="18.5"><tspan class="faint" x="524" y="338">. </tspan><tspan class="ov1">open src</tspan></text>
    <text class="text" x="674" y="338" font-size="18.5"><tspan class="text">openchamber </tspan><tspan class="ov1">·</tspan><tspan class="text"> ai-python</tspan></text>

  <text font-size="18.5"><tspan class="ov1" x="524" y="378">── contact </tspan><tspan class="faint" x="646" y="378">──────────────────────────────────────────────</tspan></text>
  <text font-size="18.5"><tspan class="faint" x="524" y="411">. </tspan><tspan class="ov1">site</tspan></text>
    <text class="text" x="674" y="411" font-size="18.5">jaygupta17.github.io</text>
    <text font-size="18.5"><tspan class="faint" x="524" y="444">. </tspan><tspan class="ov1">x</tspan></text>
    <text class="text" x="674" y="444" font-size="18.5">@guptajay19</text>
    <text font-size="18.5"><tspan class="faint" x="524" y="477">. </tspan><tspan class="ov1">mail</tspan></text>
    <text class="text" x="674" y="477" font-size="18.5">jayajaygupta16@gmail.com</text>

  <text font-size="18.5"><tspan class="ov1" x="524" y="517">── merged </tspan><tspan class="faint" x="635" y="517">───────────────────────────────────────────────</tspan></text>
  <text font-size="18.5"><tspan class="faint" x="524" y="550">. </tspan><tspan class="ov1">openchamber</tspan></text>
    <text class="text" x="674" y="550" font-size="18.5"><tspan class="mauve">#2796</tspan><tspan class="text"> </tspan><tspan class="ov1">/btw</tspan><tspan class="text"> </tspan><tspan class="ov1">·</tspan><tspan class="text"> </tspan><tspan class="mauve">#2767</tspan><tspan class="text"> </tspan><tspan class="ov1">nested git</tspan></text>
    <text font-size="18.5"><tspan class="faint" x="524" y="583">. </tspan><tspan class="ov1">ai-python</tspan></text>
    <text class="text" x="674" y="583" font-size="18.5"><tspan class="mauve">#260</tspan><tspan class="text"> </tspan><tspan class="ov1">media types</tspan><tspan class="text"> </tspan><tspan class="ov1">·</tspan><tspan class="text"> </tspan><tspan class="mauve">#259</tspan><tspan class="text"> </tspan><tspan class="ov1">stream finish</tspan></text>

  <g transform="translate(54 150)">
    <g fill="#cba6f7">
      <rect x="116.5" y="25.5" width="14" height="14"/>
      <rect x="129.5" y="25.5" width="14" height="14"/>
      <rect x="142.5" y="25.5" width="14" height="14"/>
      <rect x="155.5" y="25.5" width="14" height="14"/>
      <rect x="168.5" y="25.5" width="14" height="14"/>
      <rect x="181.5" y="25.5" width="14" height="14"/>
      <rect x="103.5" y="38.5" width="14" height="14"/>
      <rect x="116.5" y="38.5" width="14" height="14"/>
      <rect x="129.5" y="38.5" width="14" height="14"/>
      <rect x="142.5" y="38.5" width="14" height="14"/>
      <rect x="155.5" y="38.5" width="14" height="14"/>
      <rect x="168.5" y="38.5" width="14" height="14"/>
      <rect x="181.5" y="38.5" width="14" height="14"/>
      <rect x="194.5" y="38.5" width="14" height="14"/>
      <rect x="90.5" y="51.5" width="14" height="14"/>
      <rect x="103.5" y="51.5" width="14" height="14"/>
      <rect x="116.5" y="51.5" width="14" height="14"/>
      <rect x="129.5" y="51.5" width="14" height="14"/>
      <rect x="142.5" y="51.5" width="14" height="14"/>
      <rect x="155.5" y="51.5" width="14" height="14"/>
      <rect x="168.5" y="51.5" width="14" height="14"/>
      <rect x="181.5" y="51.5" width="14" height="14"/>
      <rect x="194.5" y="51.5" width="14" height="14"/>
      <rect x="207.5" y="51.5" width="14" height="14"/>
      <rect x="77.5" y="64.5" width="14" height="14"/>
      <rect x="90.5" y="64.5" width="14" height="14"/>
      <rect x="103.5" y="64.5" width="14" height="14"/>
      <rect x="116.5" y="64.5" width="14" height="14"/>
      <rect x="129.5" y="64.5" width="14" height="14"/>
      <rect x="142.5" y="64.5" width="14" height="14"/>
      <rect x="155.5" y="64.5" width="14" height="14"/>
      <rect x="168.5" y="64.5" width="14" height="14"/>
      <rect x="181.5" y="64.5" width="14" height="14"/>
      <rect x="194.5" y="64.5" width="14" height="14"/>
      <rect x="207.5" y="64.5" width="14" height="14"/>
      <rect x="77.5" y="77.5" width="14" height="14"/>
      <rect x="90.5" y="77.5" width="14" height="14"/>
      <rect x="103.5" y="77.5" width="14" height="14"/>
      <rect x="116.5" y="77.5" width="14" height="14"/>
      <rect x="129.5" y="77.5" width="14" height="14"/>
      <rect x="142.5" y="77.5" width="14" height="14"/>
      <rect x="155.5" y="77.5" width="14" height="14"/>
      <rect x="168.5" y="77.5" width="14" height="14"/>
      <rect x="181.5" y="77.5" width="14" height="14"/>
      <rect x="194.5" y="77.5" width="14" height="14"/>
      <rect x="207.5" y="77.5" width="14" height="14"/>
      <rect x="220.5" y="77.5" width="14" height="14"/>
      <rect x="77.5" y="90.5" width="14" height="14"/>
      <rect x="90.5" y="90.5" width="14" height="14"/>
      <rect x="103.5" y="90.5" width="14" height="14"/>
      <rect x="116.5" y="90.5" width="14" height="14"/>
      <rect x="129.5" y="90.5" width="14" height="14"/>
      <rect x="142.5" y="90.5" width="14" height="14"/>
      <rect x="155.5" y="90.5" width="14" height="14"/>
      <rect x="168.5" y="90.5" width="14" height="14"/>
      <rect x="181.5" y="90.5" width="14" height="14"/>
      <rect x="194.5" y="90.5" width="14" height="14"/>
      <rect x="207.5" y="90.5" width="14" height="14"/>
      <rect x="220.5" y="90.5" width="14" height="14"/>
      <rect x="77.5" y="103.5" width="14" height="14"/>
      <rect x="90.5" y="103.5" width="14" height="14"/>
      <rect x="103.5" y="103.5" width="14" height="14"/>
      <rect x="116.5" y="103.5" width="14" height="14"/>
      <rect x="129.5" y="103.5" width="14" height="14"/>
      <rect x="142.5" y="103.5" width="14" height="14"/>
      <rect x="155.5" y="103.5" width="14" height="14"/>
      <rect x="168.5" y="103.5" width="14" height="14"/>
      <rect x="181.5" y="103.5" width="14" height="14"/>
      <rect x="194.5" y="103.5" width="14" height="14"/>
      <rect x="207.5" y="103.5" width="14" height="14"/>
      <rect x="220.5" y="103.5" width="14" height="14"/>
      <rect x="64.5" y="116.5" width="14" height="14"/>
      <rect x="77.5" y="116.5" width="14" height="14"/>
      <rect x="90.5" y="116.5" width="14" height="14"/>
      <rect x="103.5" y="116.5" width="14" height="14"/>
      <rect x="116.5" y="116.5" width="14" height="14"/>
      <rect x="129.5" y="116.5" width="14" height="14"/>
      <rect x="142.5" y="116.5" width="14" height="14"/>
      <rect x="155.5" y="116.5" width="14" height="14"/>
      <rect x="168.5" y="116.5" width="14" height="14"/>
      <rect x="181.5" y="116.5" width="14" height="14"/>
      <rect x="194.5" y="116.5" width="14" height="14"/>
      <rect x="207.5" y="116.5" width="14" height="14"/>
      <rect x="77.5" y="129.5" width="14" height="14"/>
      <rect x="90.5" y="129.5" width="14" height="14"/>
      <rect x="103.5" y="129.5" width="14" height="14"/>
      <rect x="116.5" y="129.5" width="14" height="14"/>
      <rect x="129.5" y="129.5" width="14" height="14"/>
      <rect x="142.5" y="129.5" width="14" height="14"/>
      <rect x="155.5" y="129.5" width="14" height="14"/>
      <rect x="168.5" y="129.5" width="14" height="14"/>
      <rect x="181.5" y="129.5" width="14" height="14"/>
      <rect x="194.5" y="129.5" width="14" height="14"/>
      <rect x="207.5" y="129.5" width="14" height="14"/>
      <rect x="77.5" y="142.5" width="14" height="14"/>
      <rect x="90.5" y="142.5" width="14" height="14"/>
      <rect x="103.5" y="142.5" width="14" height="14"/>
      <rect x="116.5" y="142.5" width="14" height="14"/>
      <rect x="129.5" y="142.5" width="14" height="14"/>
      <rect x="142.5" y="142.5" width="14" height="14"/>
      <rect x="155.5" y="142.5" width="14" height="14"/>
      <rect x="168.5" y="142.5" width="14" height="14"/>
      <rect x="181.5" y="142.5" width="14" height="14"/>
      <rect x="194.5" y="142.5" width="14" height="14"/>
      <rect x="207.5" y="142.5" width="14" height="14"/>
      <rect x="220.5" y="142.5" width="14" height="14"/>
      <rect x="90.5" y="155.5" width="14" height="14"/>
      <rect x="103.5" y="155.5" width="14" height="14"/>
      <rect x="116.5" y="155.5" width="14" height="14"/>
      <rect x="129.5" y="155.5" width="14" height="14"/>
      <rect x="142.5" y="155.5" width="14" height="14"/>
      <rect x="155.5" y="155.5" width="14" height="14"/>
      <rect x="168.5" y="155.5" width="14" height="14"/>
      <rect x="181.5" y="155.5" width="14" height="14"/>
      <rect x="194.5" y="155.5" width="14" height="14"/>
      <rect x="207.5" y="155.5" width="14" height="14"/>
      <rect x="103.5" y="168.5" width="14" height="14"/>
      <rect x="116.5" y="168.5" width="14" height="14"/>
      <rect x="129.5" y="168.5" width="14" height="14"/>
      <rect x="142.5" y="168.5" width="14" height="14"/>
      <rect x="155.5" y="168.5" width="14" height="14"/>
      <rect x="168.5" y="168.5" width="14" height="14"/>
      <rect x="181.5" y="168.5" width="14" height="14"/>
      <rect x="194.5" y="168.5" width="14" height="14"/>
      <rect x="116.5" y="181.5" width="14" height="14"/>
      <rect x="129.5" y="181.5" width="14" height="14"/>
      <rect x="142.5" y="181.5" width="14" height="14"/>
      <rect x="155.5" y="181.5" width="14" height="14"/>
      <rect x="168.5" y="181.5" width="14" height="14"/>
      <rect x="181.5" y="181.5" width="14" height="14"/>
      <rect x="194.5" y="181.5" width="14" height="14"/>
      <rect x="103.5" y="194.5" width="14" height="14"/>
      <rect x="116.5" y="194.5" width="14" height="14"/>
      <rect x="129.5" y="194.5" width="14" height="14"/>
      <rect x="142.5" y="194.5" width="14" height="14"/>
      <rect x="155.5" y="194.5" width="14" height="14"/>
      <rect x="168.5" y="194.5" width="14" height="14"/>
      <rect x="181.5" y="194.5" width="14" height="14"/>
      <rect x="194.5" y="194.5" width="14" height="14"/>
      <rect x="207.5" y="194.5" width="14" height="14"/>
      <rect x="220.5" y="194.5" width="14" height="14"/>
      <rect x="77.5" y="207.5" width="14" height="14"/>
      <rect x="90.5" y="207.5" width="14" height="14"/>
      <rect x="103.5" y="207.5" width="14" height="14"/>
      <rect x="116.5" y="207.5" width="14" height="14"/>
      <rect x="129.5" y="207.5" width="14" height="14"/>
      <rect x="142.5" y="207.5" width="14" height="14"/>
      <rect x="155.5" y="207.5" width="14" height="14"/>
      <rect x="168.5" y="207.5" width="14" height="14"/>
      <rect x="181.5" y="207.5" width="14" height="14"/>
      <rect x="194.5" y="207.5" width="14" height="14"/>
      <rect x="207.5" y="207.5" width="14" height="14"/>
      <rect x="220.5" y="207.5" width="14" height="14"/>
      <rect x="233.5" y="207.5" width="14" height="14"/>
      <rect x="246.5" y="207.5" width="14" height="14"/>
      <rect x="64.5" y="220.5" width="14" height="14"/>
      <rect x="77.5" y="220.5" width="14" height="14"/>
      <rect x="90.5" y="220.5" width="14" height="14"/>
      <rect x="103.5" y="220.5" width="14" height="14"/>
      <rect x="116.5" y="220.5" width="14" height="14"/>
      <rect x="129.5" y="220.5" width="14" height="14"/>
      <rect x="142.5" y="220.5" width="14" height="14"/>
      <rect x="155.5" y="220.5" width="14" height="14"/>
      <rect x="168.5" y="220.5" width="14" height="14"/>
      <rect x="181.5" y="220.5" width="14" height="14"/>
      <rect x="194.5" y="220.5" width="14" height="14"/>
      <rect x="207.5" y="220.5" width="14" height="14"/>
      <rect x="220.5" y="220.5" width="14" height="14"/>
      <rect x="233.5" y="220.5" width="14" height="14"/>
      <rect x="246.5" y="220.5" width="14" height="14"/>
      <rect x="259.5" y="220.5" width="14" height="14"/>
      <rect x="272.5" y="220.5" width="14" height="14"/>
      <rect x="38.5" y="233.5" width="14" height="14"/>
      <rect x="51.5" y="233.5" width="14" height="14"/>
      <rect x="64.5" y="233.5" width="14" height="14"/>
      <rect x="77.5" y="233.5" width="14" height="14"/>
      <rect x="90.5" y="233.5" width="14" height="14"/>
      <rect x="103.5" y="233.5" width="14" height="14"/>
      <rect x="116.5" y="233.5" width="14" height="14"/>
      <rect x="129.5" y="233.5" width="14" height="14"/>
      <rect x="142.5" y="233.5" width="14" height="14"/>
      <rect x="155.5" y="233.5" width="14" height="14"/>
      <rect x="168.5" y="233.5" width="14" height="14"/>
      <rect x="181.5" y="233.5" width="14" height="14"/>
      <rect x="194.5" y="233.5" width="14" height="14"/>
      <rect x="207.5" y="233.5" width="14" height="14"/>
      <rect x="220.5" y="233.5" width="14" height="14"/>
      <rect x="233.5" y="233.5" width="14" height="14"/>
      <rect x="246.5" y="233.5" width="14" height="14"/>
      <rect x="259.5" y="233.5" width="14" height="14"/>
      <rect x="272.5" y="233.5" width="14" height="14"/>
      <rect x="285.5" y="233.5" width="14" height="14"/>
      <rect x="38.5" y="246.5" width="14" height="14"/>
      <rect x="51.5" y="246.5" width="14" height="14"/>
      <rect x="64.5" y="246.5" width="14" height="14"/>
      <rect x="77.5" y="246.5" width="14" height="14"/>
      <rect x="90.5" y="246.5" width="14" height="14"/>
      <rect x="103.5" y="246.5" width="14" height="14"/>
      <rect x="116.5" y="246.5" width="14" height="14"/>
      <rect x="129.5" y="246.5" width="14" height="14"/>
      <rect x="142.5" y="246.5" width="14" height="14"/>
      <rect x="155.5" y="246.5" width="14" height="14"/>
      <rect x="168.5" y="246.5" width="14" height="14"/>
      <rect x="181.5" y="246.5" width="14" height="14"/>
      <rect x="194.5" y="246.5" width="14" height="14"/>
      <rect x="207.5" y="246.5" width="14" height="14"/>
      <rect x="220.5" y="246.5" width="14" height="14"/>
      <rect x="233.5" y="246.5" width="14" height="14"/>
      <rect x="246.5" y="246.5" width="14" height="14"/>
      <rect x="259.5" y="246.5" width="14" height="14"/>
      <rect x="272.5" y="246.5" width="14" height="14"/>
      <rect x="285.5" y="246.5" width="14" height="14"/>
      <rect x="25.5" y="259.5" width="14" height="14"/>
      <rect x="38.5" y="259.5" width="14" height="14"/>
      <rect x="51.5" y="259.5" width="14" height="14"/>
      <rect x="64.5" y="259.5" width="14" height="14"/>
      <rect x="77.5" y="259.5" width="14" height="14"/>
      <rect x="90.5" y="259.5" width="14" height="14"/>
      <rect x="103.5" y="259.5" width="14" height="14"/>
      <rect x="116.5" y="259.5" width="14" height="14"/>
      <rect x="129.5" y="259.5" width="14" height="14"/>
      <rect x="142.5" y="259.5" width="14" height="14"/>
      <rect x="155.5" y="259.5" width="14" height="14"/>
      <rect x="168.5" y="259.5" width="14" height="14"/>
      <rect x="181.5" y="259.5" width="14" height="14"/>
      <rect x="194.5" y="259.5" width="14" height="14"/>
      <rect x="207.5" y="259.5" width="14" height="14"/>
      <rect x="220.5" y="259.5" width="14" height="14"/>
      <rect x="233.5" y="259.5" width="14" height="14"/>
      <rect x="246.5" y="259.5" width="14" height="14"/>
      <rect x="259.5" y="259.5" width="14" height="14"/>
      <rect x="272.5" y="259.5" width="14" height="14"/>
      <rect x="285.5" y="259.5" width="14" height="14"/>
      <rect x="25.5" y="272.5" width="14" height="14"/>
      <rect x="38.5" y="272.5" width="14" height="14"/>
      <rect x="51.5" y="272.5" width="14" height="14"/>
      <rect x="64.5" y="272.5" width="14" height="14"/>
      <rect x="77.5" y="272.5" width="14" height="14"/>
      <rect x="90.5" y="272.5" width="14" height="14"/>
      <rect x="103.5" y="272.5" width="14" height="14"/>
      <rect x="116.5" y="272.5" width="14" height="14"/>
      <rect x="129.5" y="272.5" width="14" height="14"/>
      <rect x="142.5" y="272.5" width="14" height="14"/>
      <rect x="155.5" y="272.5" width="14" height="14"/>
      <rect x="168.5" y="272.5" width="14" height="14"/>
      <rect x="181.5" y="272.5" width="14" height="14"/>
      <rect x="194.5" y="272.5" width="14" height="14"/>
      <rect x="207.5" y="272.5" width="14" height="14"/>
      <rect x="220.5" y="272.5" width="14" height="14"/>
      <rect x="233.5" y="272.5" width="14" height="14"/>
      <rect x="246.5" y="272.5" width="14" height="14"/>
      <rect x="259.5" y="272.5" width="14" height="14"/>
      <rect x="272.5" y="272.5" width="14" height="14"/>
      <rect x="285.5" y="272.5" width="14" height="14"/>
      <rect x="298.5" y="272.5" width="14" height="14"/>
      <rect x="25.5" y="285.5" width="14" height="14"/>
      <rect x="38.5" y="285.5" width="14" height="14"/>
      <rect x="51.5" y="285.5" width="14" height="14"/>
      <rect x="64.5" y="285.5" width="14" height="14"/>
      <rect x="77.5" y="285.5" width="14" height="14"/>
      <rect x="90.5" y="285.5" width="14" height="14"/>
      <rect x="103.5" y="285.5" width="14" height="14"/>
      <rect x="116.5" y="285.5" width="14" height="14"/>
      <rect x="129.5" y="285.5" width="14" height="14"/>
      <rect x="142.5" y="285.5" width="14" height="14"/>
      <rect x="155.5" y="285.5" width="14" height="14"/>
      <rect x="168.5" y="285.5" width="14" height="14"/>
      <rect x="181.5" y="285.5" width="14" height="14"/>
      <rect x="194.5" y="285.5" width="14" height="14"/>
      <rect x="207.5" y="285.5" width="14" height="14"/>
      <rect x="220.5" y="285.5" width="14" height="14"/>
      <rect x="233.5" y="285.5" width="14" height="14"/>
      <rect x="246.5" y="285.5" width="14" height="14"/>
      <rect x="259.5" y="285.5" width="14" height="14"/>
      <rect x="272.5" y="285.5" width="14" height="14"/>
      <rect x="285.5" y="285.5" width="14" height="14"/>
      <rect x="298.5" y="285.5" width="14" height="14"/>
      <rect x="25.5" y="298.5" width="14" height="14"/>
      <rect x="38.5" y="298.5" width="14" height="14"/>
      <rect x="51.5" y="298.5" width="14" height="14"/>
      <rect x="64.5" y="298.5" width="14" height="14"/>
      <rect x="77.5" y="298.5" width="14" height="14"/>
      <rect x="90.5" y="298.5" width="14" height="14"/>
      <rect x="103.5" y="298.5" width="14" height="14"/>
      <rect x="116.5" y="298.5" width="14" height="14"/>
      <rect x="129.5" y="298.5" width="14" height="14"/>
      <rect x="142.5" y="298.5" width="14" height="14"/>
      <rect x="155.5" y="298.5" width="14" height="14"/>
      <rect x="168.5" y="298.5" width="14" height="14"/>
      <rect x="181.5" y="298.5" width="14" height="14"/>
      <rect x="194.5" y="298.5" width="14" height="14"/>
      <rect x="207.5" y="298.5" width="14" height="14"/>
      <rect x="220.5" y="298.5" width="14" height="14"/>
      <rect x="233.5" y="298.5" width="14" height="14"/>
      <rect x="246.5" y="298.5" width="14" height="14"/>
      <rect x="259.5" y="298.5" width="14" height="14"/>
      <rect x="272.5" y="298.5" width="14" height="14"/>
      <rect x="285.5" y="298.5" width="14" height="14"/>
      <rect x="298.5" y="298.5" width="14" height="14"/>
      <rect x="25.5" y="311.5" width="14" height="14"/>
      <rect x="38.5" y="311.5" width="14" height="14"/>
      <rect x="51.5" y="311.5" width="14" height="14"/>
      <rect x="64.5" y="311.5" width="14" height="14"/>
      <rect x="77.5" y="311.5" width="14" height="14"/>
      <rect x="90.5" y="311.5" width="14" height="14"/>
      <rect x="103.5" y="311.5" width="14" height="14"/>
      <rect x="116.5" y="311.5" width="14" height="14"/>
      <rect x="129.5" y="311.5" width="14" height="14"/>
      <rect x="142.5" y="311.5" width="14" height="14"/>
      <rect x="155.5" y="311.5" width="14" height="14"/>
      <rect x="168.5" y="311.5" width="14" height="14"/>
      <rect x="181.5" y="311.5" width="14" height="14"/>
      <rect x="194.5" y="311.5" width="14" height="14"/>
      <rect x="207.5" y="311.5" width="14" height="14"/>
      <rect x="220.5" y="311.5" width="14" height="14"/>
      <rect x="233.5" y="311.5" width="14" height="14"/>
      <rect x="246.5" y="311.5" width="14" height="14"/>
      <rect x="259.5" y="311.5" width="14" height="14"/>
      <rect x="272.5" y="311.5" width="14" height="14"/>
      <rect x="285.5" y="311.5" width="14" height="14"/>
      <rect x="298.5" y="311.5" width="14" height="14"/>
    </g>
    <g clip-path="url(#silclip)">
      <rect y="-30" width="60" height="380" fill="url(#silsheen)" transform="skewX(-16)">
        <animate attributeName="x" values="-140;380;380" keyTimes="0;0.12;1" dur="8s" begin="4s" repeatCount="indefinite"/>
      </rect>
    </g>
  </g>
  <text class="text" x="54" y="504" font-size="24" font-weight="600">Jay Gupta</text>
  <text class="mauve" x="192" y="504" font-size="24">▍<animate attributeName="opacity" values="1;0;1" dur="1.2s" repeatCount="indefinite" begin="0.6s"/></text>
  <text class="ov1" x="54" y="534" font-size="16"><tspan class="mauve">@</tspan>guptajay19 · nagpur, india · utc+05:30</text>

  <rect x="-160" y="50" width="64" height="610" fill="url(#sheen)" transform="skewX(-14)">
    <animate attributeName="x" values="-160;1360;1360" keyTimes="0;0.09;1" dur="8s" begin="1.5s" repeatCount="indefinite"/>
  </rect>

  <g clip-path="url(#winclip)">
      <use href="#pA" xlink:href="#pA" fill="#cba6f7" opacity="0.55">
        <animateTransform attributeName="transform" type="translate" values="70,-30;88,330;58,745" keyTimes="0;0.5;1" dur="13.0s" begin="-2.0s" repeatCount="indefinite"/>
      </use>
      <use href="#pB" xlink:href="#pB" fill="#f5e0dc" opacity="0.4">
        <animateTransform attributeName="transform" type="translate" values="150,-30;168,330;138,745" keyTimes="0;0.5;1" dur="16.0s" begin="-5.5s" repeatCount="indefinite"/>
      </use>
      <use href="#pC" xlink:href="#pC" fill="#cba6f7" opacity="0.48">
        <animateTransform attributeName="transform" type="translate" values="240,-30;258,330;228,745" keyTimes="0;0.5;1" dur="12.0s" begin="-8.0s" repeatCount="indefinite"/>
      </use>
      <use href="#pA" xlink:href="#pA" fill="#f5e0dc" opacity="0.52">
        <animateTransform attributeName="transform" type="translate" values="330,-30;348,330;318,745" keyTimes="0;0.5;1" dur="15.0s" begin="-1.5s" repeatCount="indefinite"/>
      </use>
      <use href="#pB" xlink:href="#pB" fill="#cba6f7" opacity="0.36">
        <animateTransform attributeName="transform" type="translate" values="450,-30;468,330;438,745" keyTimes="0;0.5;1" dur="17.0s" begin="-11.0s" repeatCount="indefinite"/>
      </use>
      <use href="#pC" xlink:href="#pC" fill="#f5e0dc" opacity="0.44">
        <animateTransform attributeName="transform" type="translate" values="560,-30;578,330;548,745" keyTimes="0;0.5;1" dur="11.0s" begin="-3.5s" repeatCount="indefinite"/>
      </use>
      <use href="#pA" xlink:href="#pA" fill="#cba6f7" opacity="0.4">
        <animateTransform attributeName="transform" type="translate" values="670,-30;688,330;658,745" keyTimes="0;0.5;1" dur="14.0s" begin="-6.5s" repeatCount="indefinite"/>
      </use>
      <use href="#pB" xlink:href="#pB" fill="#f5e0dc" opacity="0.5">
        <animateTransform attributeName="transform" type="translate" values="780,-30;798,330;768,745" keyTimes="0;0.5;1" dur="16.5s" begin="-9.5s" repeatCount="indefinite"/>
      </use>
      <use href="#pC" xlink:href="#pC" fill="#cba6f7" opacity="0.42">
        <animateTransform attributeName="transform" type="translate" values="890,-30;908,330;878,745" keyTimes="0;0.5;1" dur="12.5s" begin="-4.5s" repeatCount="indefinite"/>
      </use>
      <use href="#pA" xlink:href="#pA" fill="#f5e0dc" opacity="0.5">
        <animateTransform attributeName="transform" type="translate" values="990,-30;1008,330;978,745" keyTimes="0;0.5;1" dur="15.5s" begin="-12.0s" repeatCount="indefinite"/>
      </use>
      <use href="#pB" xlink:href="#pB" fill="#cba6f7" opacity="0.38">
        <animateTransform attributeName="transform" type="translate" values="1080,-30;1098,330;1068,745" keyTimes="0;0.5;1" dur="13.5s" begin="-7.0s" repeatCount="indefinite"/>
      </use>
      <use href="#pC" xlink:href="#pC" fill="#f5e0dc" opacity="0.52">
        <animateTransform attributeName="transform" type="translate" values="1140,-30;1158,330;1128,745" keyTimes="0;0.5;1" dur="14.5s" begin="-0.8s" repeatCount="indefinite"/>
      </use>
  </g>

  <rect fill="#181825" y="666" width="1200" height="34"/>
  <line stroke="#313244" stroke-width="1" x1="0" y1="666.5" x2="1200" y2="666.5"/>
  <text x="22" y="687.5" font-size="14.5"><tspan class="sub">[0]</tspan><tspan class="ov0"> 0:zsh  1:nvim  2:</tspan><tspan class="mauve">opencode</tspan></text>
  <text x="1178" y="687.5" font-size="14.5" text-anchor="end"><tspan class="sub">jaygupta17</tspan><tspan class="ov0"> · mocha</tspan></text>

  <rect width="1200" height="700" filter="url(#grain)" opacity="0.055"/>
</svg>
